<mxfile host="app.diagrams.net" modified="2023-12-14T09:13:46.966Z" agent="Mozilla/5.0 (Macintosh; Intel Mac OS X 10_15_7) AppleWebKit/605.1.15 (KHTML, like Gecko) Version/17.1.2 Safari/605.1.15" etag="zQ4x1_OqWKZrdGXzVEwq" version="22.1.8" type="github">
  <diagram id="C5RBs43oDa-KdzZeNtuy" name="Page-1">
    <mxGraphModel dx="1242" dy="907" grid="1" gridSize="10" guides="1" tooltips="1" connect="1" arrows="1" fold="1" page="1" pageScale="1" pageWidth="827" pageHeight="1169" math="0" shadow="0">
      <root>
        <mxCell id="WIyWlLk6GJQsqaUBKTNV-0" />
        <mxCell id="WIyWlLk6GJQsqaUBKTNV-1" parent="WIyWlLk6GJQsqaUBKTNV-0" />
        <mxCell id="2JYnC2IdUpsd8ku6Hx6w-0" value="declare/&lt;u&gt;define&lt;/u&gt; something ready to store a pointer (an address) to char(s)" style="whiteSpace=wrap;html=1;" vertex="1" parent="WIyWlLk6GJQsqaUBKTNV-1">
          <mxGeometry x="30" y="60" width="240" height="60" as="geometry" />
        </mxCell>
        <mxCell id="2JYnC2IdUpsd8ku6Hx6w-2" value="&lt;b&gt;1&lt;/b&gt;" style="text;html=1;align=center;verticalAlign=middle;resizable=0;points=[];autosize=1;strokeColor=none;fillColor=none;" vertex="1" parent="WIyWlLk6GJQsqaUBKTNV-1">
          <mxGeometry y="75" width="30" height="30" as="geometry" />
        </mxCell>
        <mxCell id="2JYnC2IdUpsd8ku6Hx6w-3" value="use &lt;u&gt;malloc&lt;/u&gt; function on it: malloc returns the address where x allocated space will be available&amp;nbsp;" style="whiteSpace=wrap;html=1;" vertex="1" parent="WIyWlLk6GJQsqaUBKTNV-1">
          <mxGeometry x="30" y="160" width="240" height="60" as="geometry" />
        </mxCell>
        <mxCell id="2JYnC2IdUpsd8ku6Hx6w-4" value="&lt;b&gt;2&lt;/b&gt;" style="text;html=1;align=center;verticalAlign=middle;resizable=0;points=[];autosize=1;strokeColor=none;fillColor=none;" vertex="1" parent="WIyWlLk6GJQsqaUBKTNV-1">
          <mxGeometry y="175" width="30" height="30" as="geometry" />
        </mxCell>
        <mxCell id="2JYnC2IdUpsd8ku6Hx6w-6" value="&lt;font style=&quot;font-size: 16px;&quot;&gt;INSIDE THE SAME FUNCTION:&lt;/font&gt;" style="text;html=1;align=center;verticalAlign=middle;resizable=0;points=[];autosize=1;strokeColor=none;fillColor=none;" vertex="1" parent="WIyWlLk6GJQsqaUBKTNV-1">
          <mxGeometry x="25" y="8" width="250" height="30" as="geometry" />
        </mxCell>
        <mxCell id="2JYnC2IdUpsd8ku6Hx6w-7" value="now you can store char(s) (having a maximum defined size of x) using that address" style="whiteSpace=wrap;html=1;" vertex="1" parent="WIyWlLk6GJQsqaUBKTNV-1">
          <mxGeometry x="30" y="260" width="240" height="60" as="geometry" />
        </mxCell>
        <mxCell id="2JYnC2IdUpsd8ku6Hx6w-8" value="&lt;b&gt;3&lt;/b&gt;" style="text;html=1;align=center;verticalAlign=middle;resizable=0;points=[];autosize=1;strokeColor=none;fillColor=none;" vertex="1" parent="WIyWlLk6GJQsqaUBKTNV-1">
          <mxGeometry y="275" width="30" height="30" as="geometry" />
        </mxCell>
        <mxCell id="2JYnC2IdUpsd8ku6Hx6w-13" value="declare/&lt;u&gt;define&lt;/u&gt; something ready to store a pointer (an address) to char(s)" style="whiteSpace=wrap;html=1;" vertex="1" parent="WIyWlLk6GJQsqaUBKTNV-1">
          <mxGeometry x="455" y="60" width="240" height="60" as="geometry" />
        </mxCell>
        <mxCell id="2JYnC2IdUpsd8ku6Hx6w-14" value="&lt;b&gt;1&lt;/b&gt;" style="text;html=1;align=center;verticalAlign=middle;resizable=0;points=[];autosize=1;strokeColor=none;fillColor=none;" vertex="1" parent="WIyWlLk6GJQsqaUBKTNV-1">
          <mxGeometry x="425" y="75" width="30" height="30" as="geometry" />
        </mxCell>
        <mxCell id="2JYnC2IdUpsd8ku6Hx6w-15" value="&lt;u&gt;sending&lt;/u&gt; that &quot;place holder&quot; (&quot;container ready to store an address pointing to char(s)) as an argument of a function" style="whiteSpace=wrap;html=1;" vertex="1" parent="WIyWlLk6GJQsqaUBKTNV-1">
          <mxGeometry x="455" y="160" width="240" height="60" as="geometry" />
        </mxCell>
        <mxCell id="2JYnC2IdUpsd8ku6Hx6w-16" value="&lt;b&gt;2&lt;/b&gt;" style="text;html=1;align=center;verticalAlign=middle;resizable=0;points=[];autosize=1;strokeColor=none;fillColor=none;" vertex="1" parent="WIyWlLk6GJQsqaUBKTNV-1">
          <mxGeometry x="425" y="175" width="30" height="30" as="geometry" />
        </mxCell>
        <mxCell id="2JYnC2IdUpsd8ku6Hx6w-17" value="&lt;font style=&quot;font-size: 16px;&quot;&gt;INSIDE ANOTHER FUNCTION (ERROR AND SOLUTIONS)&lt;/font&gt;" style="text;html=1;align=center;verticalAlign=middle;resizable=0;points=[];autosize=1;strokeColor=none;fillColor=none;" vertex="1" parent="WIyWlLk6GJQsqaUBKTNV-1">
          <mxGeometry x="350" y="8" width="450" height="30" as="geometry" />
        </mxCell>
        <mxCell id="2JYnC2IdUpsd8ku6Hx6w-18" value="use &lt;u&gt;malloc&lt;/u&gt; into the function &lt;br&gt;&lt;i&gt;void set_malloc(char *ptr)&lt;br&gt;&lt;/i&gt;malloc returns an address where x memory is now allocated&amp;nbsp;" style="whiteSpace=wrap;html=1;" vertex="1" parent="WIyWlLk6GJQsqaUBKTNV-1">
          <mxGeometry x="455" y="260" width="240" height="60" as="geometry" />
        </mxCell>
        <mxCell id="2JYnC2IdUpsd8ku6Hx6w-19" value="&lt;b&gt;3&lt;/b&gt;" style="text;html=1;align=center;verticalAlign=middle;resizable=0;points=[];autosize=1;strokeColor=none;fillColor=none;" vertex="1" parent="WIyWlLk6GJQsqaUBKTNV-1">
          <mxGeometry x="425" y="275" width="30" height="30" as="geometry" />
        </mxCell>
        <mxCell id="2JYnC2IdUpsd8ku6Hx6w-20" value="use malloc into the function void set_malloc(char *ptr)" style="whiteSpace=wrap;html=1;" vertex="1" parent="WIyWlLk6GJQsqaUBKTNV-1">
          <mxGeometry x="455" y="360" width="240" height="60" as="geometry" />
        </mxCell>
        <mxCell id="2JYnC2IdUpsd8ku6Hx6w-21" value="&lt;b&gt;4&lt;/b&gt;" style="text;html=1;align=center;verticalAlign=middle;resizable=0;points=[];autosize=1;strokeColor=none;fillColor=none;" vertex="1" parent="WIyWlLk6GJQsqaUBKTNV-1">
          <mxGeometry x="425" y="375" width="30" height="30" as="geometry" />
        </mxCell>
      </root>
    </mxGraphModel>
  </diagram>
</mxfile>
